/* XPM */
static xpm_row_t xpm_5[] = {
"25 30 2 1",
" 	c None",
".	c #000000",
"                         ",
"                         ",
"                         ",
"                         ",
"       .............     ",
"      ..............     ",
"      ..............     ",
"      ..............     ",
"      ....               ",
"      ....               ",
"      ....               ",
"      ....               ",
"      .... .....         ",
"      ............       ",
"     ..............      ",
"     ...............     ",
"        .      .....     ",
"               .....     ",
"                ....     ",
"                .....    ",
"                .....    ",
"     ....       ....     ",
"     .....     .....     ",
"     ......    .....     ",
"      .............      ",
"       ............      ",
"        ..........       ",
"          ......         ",
"                         ",
"                         "};
