/* XPM */
static xpm_row_t error[] = {
"70 70 226 2",
"  	c None",
". 	c #E24C4B",
"+ 	c #E24B4A",
"@ 	c #E35554",
"# 	c #E13837",
"$ 	c #EDA9A9",
"% 	c #E24846",
"& 	c #E45E5D",
"* 	c #FCF1F1",
"= 	c #E24D4C",
"- 	c #E01C18",
"; 	c #F2C6C6",
"> 	c #FFFFFF",
", 	c #E1403F",
"' 	c #E78483",
") 	c #FCF2F2",
"! 	c #E13B3A",
"~ 	c #F5D2D2",
"{ 	c #EB9A99",
"] 	c #FCF3F3",
"^ 	c #E24A49",
"/ 	c #E45D5C",
"( 	c #F5D4D4",
"_ 	c #E24A48",
": 	c #ECA0A0",
"< 	c #FEFBFB",
"[ 	c #E46564",
"} 	c #F8E0E0",
"| 	c #E24E4D",
"1 	c #EDA9A8",
"2 	c #E35A5A",
"3 	c #E14342",
"4 	c #F1C1C1",
"5 	c #E24847",
"6 	c #E56F6F",
"7 	c #E13D3B",
"8 	c #F7DADA",
"9 	c #E13735",
"0 	c #EA9A99",
"a 	c #FFFEFE",
"b 	c #E35755",
"c 	c #F9E6E5",
"d 	c #E02B2A",
"e 	c #EFB6B6",
"f 	c #FEFCFC",
"g 	c #E14443",
"h 	c #E67877",
"i 	c #F9E8E7",
"j 	c #F5F5F6",
"k 	c #DEDEDF",
"l 	c #F4F5F5",
"m 	c #E14241",
"n 	c #F0BDBD",
"o 	c #FCFCFC",
"p 	c #B7B8B8",
"q 	c #5A5D60",
"r 	c #4D5054",
"s 	c #585C5E",
"t 	c #B1B2B3",
"u 	c #FAFAFA",
"v 	c #E24746",
"w 	c #E88786",
"x 	c #FBEDED",
"y 	c #FDFDFD",
"z 	c #B5B5B7",
"A 	c #2E353B",
"B 	c #3E4347",
"C 	c #3F4448",
"D 	c #293036",
"E 	c #ABACAC",
"F 	c #E35655",
"G 	c #F2C3C3",
"H 	c #E2E2E2",
"I 	c #5A5D5F",
"J 	c #383E42",
"K 	c #3B4145",
"L 	c #3F4549",
"M 	c #DBDBDC",
"N 	c #E88988",
"O 	c #FEF9F9",
"P 	c #FEFEFE",
"Q 	c #C7C8C8",
"R 	c #00000F",
"S 	c #404448",
"T 	c #00121E",
"U 	c #BCBDBE",
"V 	c #F6D7D7",
"W 	c #FBFBFB",
"X 	c #B6B8B8",
"Y 	c #17232B",
"Z 	c #1A252D",
"` 	c #B4B5B5",
" .	c #EA9797",
"..	c #C0C1C1",
"+.	c #0D1D26",
"@.	c #0E1E27",
"#.	c #BFC0C1",
"$.	c #E24141",
"%.	c #FCEFEE",
"&.	c #D3D3D4",
"*.	c #000011",
"=.	c #E13937",
"-.	c #F0B8B8",
";.	c #DFDFDF",
">.	c #44484C",
",.	c #3C4145",
"'.	c #41474B",
").	c #DEDFDF",
"!.	c #E46262",
"~.	c #FDF9F9",
"{.	c #E6E7E7",
"].	c #6B6E70",
"^.	c #373D41",
"/.	c #6A6D6F",
"(.	c #E6E6E7",
"_.	c #E13736",
":.	c #F4CFCF",
"<.	c #EEEEEE",
"[.	c #858789",
"}.	c #32383D",
"|.	c #32393D",
"1.	c #848688",
"2.	c #EDEDEE",
"3.	c #E13B39",
"4.	c #E98D8D",
"5.	c #FDF8F8",
"6.	c #F5F5F5",
"7.	c #9B9D9D",
"8.	c #2C3339",
"9.	c #9A9C9D",
"0.	c #E24948",
"a.	c #E25352",
"b.	c #AEB0B0",
"c.	c #212B31",
"d.	c #222B32",
"e.	c #AEAFB0",
"f.	c #E13938",
"g.	c #ECA3A3",
"h.	c #BFBFC0",
"i.	c #262F35",
"j.	c #BEBEBF",
"k.	c #E56B6B",
"l.	c #F7DBDB",
"m.	c #CCCDCD",
"n.	c #474B4F",
"o.	c #3D4247",
"p.	c #3D4347",
"q.	c #464A4E",
"r.	c #CCCCCC",
"s.	c #EDA7A6",
"t.	c #D9DADA",
"u.	c #626567",
"v.	c #616467",
"w.	c #D9D9DA",
"x.	c #E57170",
"y.	c #FAE7E7",
"z.	c #E7E7E7",
"A.	c #78797B",
"B.	c #393F43",
"C.	c #77797B",
"D.	c #E6E7E6",
"E.	c #EEB1B1",
"F.	c #F3F3F3",
"G.	c #88898B",
"H.	c #363C40",
"I.	c #87898B",
"J.	c #F2F3F3",
"K.	c #E57070",
"L.	c #FDF6F6",
"M.	c #ADAEAE",
"N.	c #33393E",
"O.	c #363C41",
"P.	c #353B40",
"Q.	c #B0B1B2",
"R.	c #F5CECE",
"S.	c #EFEFF0",
"T.	c #AAABAC",
"U.	c #6F7173",
"V.	c #717376",
"W.	c #F2F2F2",
"X.	c #E98B8A",
"Y.	c #F8F8F8",
"Z.	c #E7E7E8",
"`.	c #E8E8E8",
" +	c #F9FAFA",
".+	c #E1302F",
"++	c #E13634",
"@+	c #EEACAC",
"#+	c #FEFDFD",
"$+	c #F8F9F9",
"%+	c #CECFD0",
"&+	c #CECFCF",
"*+	c #E35A59",
"=+	c #FBEEEE",
"-+	c #EFEFEF",
";+	c #717375",
">+	c #E13A39",
",+	c #F1C0C0",
"'+	c #3C4246",
")+	c #ADAEAF",
"!+	c #E14140",
"~+	c #E7807F",
"{+	c #A2A3A4",
"]+	c #343A3F",
"^+	c #E25150",
"/+	c #D4D5D5",
"(+	c #4D5254",
"_+	c #252E34",
":+	c #D4D4D5",
"<+	c #E24443",
"[+	c #E98C8B",
"}+	c #FDF4F4",
"|+	c #A0A1A2",
"1+	c #E45E5E",
"2+	c #F4CECE",
"3+	c #FEFEFF",
"4+	c #F7F7F8",
"5+	c #E24645",
"6+	c #ECA1A1",
"7+	c #FCF0F0",
"8+	c #FFFDFD",
"9+	c #FFFCFC",
"0+	c #E24947",
"a+	c #E66E6E",
"b+	c #EFB1B1",
"c+	c #E13836",
"                                                                                                                                            ",
"                                                                                                                                            ",
"                                                                    . .                                                                     ",
"                                                              . . . . . . . .                                                               ",
"                                                            . . . . . . . . . .                                                             ",
"                                                          . . . . . . . . . . . .                                                           ",
"                                                          . . . . . . . . . . . .                                                           ",
"                                                        . . . . . . . . . . . . . .                                                         ",
"                                                        . . . . . + @ @ + . . . . .                                                         ",
"                                                      . . . . . . # $ $ # . . . . . .                                                       ",
"                                                    . . . . . . % & * * & % . . . . . .                                                     ",
"                                                    . . . . . = - ; > > ; - = . . . . .                                                     ",
"                                                  . . . . . . , ' ) > > ) ' , . . . . . .                                                   ",
"                                                  . . . . . + ! ~ > > > > ~ ! + . . . . .                                                   ",
"                                                . . . . . . , { ] > > > > ] { , . . . . . .                                                 ",
"                                                . . . . . ^ / ( > > > > > > ( / ^ . . . . .                                                 ",
"                                              . . . . . . _ : < > > > > > > < : _ . . . . . .                                               ",
"                                              . . . . . + [ } > > > > > > > > } [ + . . . . .                                               ",
"                                            . . . . . . | 1 > > > > > > > > > > 1 | . . . . . .                                             ",
"                                          . . . . . . . 2 ] > > > > > > > > > > ] 2 . . . . . . .                                           ",
"                                          . . . . . . 3 4 > > > > > > > > > > > > 4 3 . . . . . .                                           ",
"                                        . . . . . . 5 6 > > > > > > > > > > > > > > 6 5 . . . . . .                                         ",
"                                        . . . . . + 7 8 > > > > > > > > > > > > > > 8 7 + . . . . .                                         ",
"                                      . . . . . . 9 0 a > > > > > > > > > > > > > > a 0 9 . . . . . .                                       ",
"                                      . . . . . 5 b c > > > > > > > > > > > > > > > > c b 5 . . . . .                                       ",
"                                    . . . . . . d e f > > > > > > > > > > > > > > > > f e d . . . . . .                                     ",
"                                  . . . . . . g h i > > > > > > > j k k l > > > > > > > i h g . . . . . .                                   ",
"                                  . . . . . . m n > > > > > > o p q r r s t u > > > > > > n m . . . . . .                                   ",
"                                . . . . . . v w x > > > > > y z A B C C B D E u > > > > > x w v . . . . . .                                 ",
"                                . . . . . . F G > > > > > > H I J C C C C K L M > > > > > > G F . . . . . .                                 ",
"                              . . . . . . . N O > > > > > P Q R S C C C C C T U o > > > > > O N . . . . . . .                               ",
"                              . . . . . . . V > > > > > > W X Y C C C C C C Z ` u > > > > > > V . . . . . . .                               ",
"                            . . . . . . v  .> > > > > > > o ..+.C C C C C C @.#.o > > > > > > >  .v . . . . . .                             ",
"                          . . . . . . . $.%.> > > > > > > > &.*.C C C C C C R &.> > > > > > > > %.$.. . . . . . .                           ",
"                          . . . . . . =.-.> > > > > > > > > ;.>.,.C C C C ,.'.).> > > > > > > > > -.=.. . . . . .                           ",
"                        . . . . . . v !.~.> > > > > > > > > {.].^.C C C C ^./.(.> > > > > > > > > ~.!.v . . . . . .                         ",
"                        . . . . . + _.:.a > > > > > > > > > <.[.}.C C C C |.1.2.> > > > > > > > > a :._.+ . . . . .                         ",
"                      . . . . . . 3.4.5.> > > > > > > > > > 6.7.8.C C C C 8.9.6.> > > > > > > > > > 5.4.3.. . . . . .                       ",
"                      . . . . . 0.a.V > > > > > > > > > > > o b.c.C C C C d.e.o > > > > > > > > > > > V a.0.. . . . .                       ",
"                    . . . . . . f.g.5.> > > > > > > > > > > > h.i.C C C C i.j.> > > > > > > > > > > > 5.g.f.. . . . . .                     ",
"                    . . . . . 5 k.l.> > > > > > > > > > > > > m.n.o.C C p.q.r.> > > > > > > > > > > > > l.k.5 . . . . .                     ",
"                  . . . . . . 0.s.> > > > > > > > > > > > > > t.u.K C C K v.w.> > > > > > > > > > > > > > s.0.. . . . . .                   ",
"                  . . . . . + x.y.> > > > > > > > > > > > > > z.A.B.C C B.C.D.> > > > > > > > > > > > > > y.x.+ . . . . .                   ",
"                . . . . . . | E.> > > > > > > > > > > > > > > F.G.H.C C H.I.J.> > > > > > > > > > > > > > > E.| . . . . . .                 ",
"              . . . . . . + K.L.> > > > > > > > > > > > > > > > M.N.O.H.P.Q.> > > > > > > > > > > > > > > > L.K.+ . . . . . .               ",
"              . . . . . = # R.> > > > > > > > > > > > > > > > > S.T.U.V.Q.W.> > > > > > > > > > > > > > > > > R.# = . . . . .               ",
"            . . . . . . m X.a > > > > > > > > > > > > > > > > > > Y.Z.`. +> > > > > > > > > > > > > > > > > > a X.m . . . . . .             ",
"            . . . . . . .+y.> > > > > > > > > > > > > > > > > > > > > > > > > > > > > > > > > > > > > > > > > > y..+. . . . . .             ",
"          . . . . . . ++@+#+> > > > > > > > > > > > > > > > > > > $+%+&+$+> > > > > > > > > > > > > > > > > > > #+@+++. . . . . .           ",
"        . . . . . . % *+=+> > > > > > > > > > > > > > > > > > > -+;+N.N.;+-+> > > > > > > > > > > > > > > > > > > =+*+% . . . . . .         ",
"        . . . . . + >+,+f > > > > > > > > > > > > > > > > > > > e.o.C C '+)+> > > > > > > > > > > > > > > > > > > f ,+>++ . . . . .         ",
"      . . . . . . !+~+=+> > > > > > > > > > > > > > > > > > > > {+]+C C ]+{+> > > > > > > > > > > > > > > > > > > > =+~+!+. . . . . .       ",
"      . . . . . + ^+; > > > > > > > > > > > > > > > > > > > > > /+(+_+_+r :+> > > > > > > > > > > > > > > > > > > > > ; ^++ . . . . .       ",
"    . . . . . . <+[+}+> > > > > > > > > > > > > > > > > > > > > y :+|+|+:+y > > > > > > > > > > > > > > > > > > > > > }+[+<+. . . . . .     ",
"    . . . . . + 1+2+> > > > > > > > > > > > > > > > > > > > > > > 3+4+4+3+> > > > > > > > > > > > > > > > > > > > > > > 2+1++ . . . . .     ",
"  . . . . . . . 4.> > > > > > > > > > > > > > > > > > > > > > > > > > > > > > > > > > > > > > > > > > > > > > > > > > > > 4.. . . . . . .   ",
"  . . . . . . *+} > > > > > > > > > > > > > > > > > > > > > > > > > > > > > > > > > > > > > > > > > > > > > > > > > > > > } *+. . . . . .   ",
". . . . . . 5+6+> > > > > > > > > > > > > > > > > > > > > > > > > > > > > > > > > > > > > > > > > > > > > > > > > > > > > > 6+5+. . . . . . ",
". . . . . ^ & 7+8+9+9+9+9+9+9+9+9+9+9+9+9+9+9+9+9+9+9+9+9+9+9+9+9+9+9+9+9+9+9+9+9+9+9+9+9+9+9+9+9+9+9+9+9+9+9+9+9+9+9+9+9+8+7+& ^ . . . . . ",
". . . . . 0+a+e b+b+b+b+b+b+b+b+b+b+b+b+b+b+b+b+b+b+b+b+b+b+b+b+b+b+b+b+b+b+b+b+b+b+b+b+b+b+b+b+b+b+b+b+b+b+b+b+b+b+b+b+b+b+e a+0+. . . . . ",
". . . . . . 0.c+=.=.=.=.=.=.=.=.=.=.=.=.=.=.=.=.=.=.=.=.=.=.=.=.=.=.=.=.=.=.=.=.=.=.=.=.=.=.=.=.=.=.=.=.=.=.=.=.=.=.=.=.=.=.c+0.. . . . . . ",
". . . . . . . . . . . . . . . . . . . . . . . . . . . . . . . . . . . . . . . . . . . . . . . . . . . . . . . . . . . . . . . . . . . . . . ",
". . . . . . . . . . . . . . . . . . . . . . . . . . . . . . . . . . . . . . . . . . . . . . . . . . . . . . . . . . . . . . . . . . . . . . ",
"  . . . . . . . . . . . . . . . . . . . . . . . . . . . . . . . . . . . . . . . . . . . . . . . . . . . . . . . . . . . . . . . . . . . .   ",
"    . . . . . . . . . . . . . . . . . . . . . . . . . . . . . . . . . . . . . . . . . . . . . . . . . . . . . . . . . . . . . . . . . .     ",
"      . . . . . . . . . . . . . . . . . . . . . . . . . . . . . . . . . . . . . . . . . . . . . . . . . . . . . . . . . . . . . . . .       ",
"        . . . . . . . . . . . . . . . . . . . . . . . . . . . . . . . . . . . . . . . . . . . . . . . . . . . . . . . . . . . . .           ",
"                                                                                                                                            ",
"                                                                                                                                            ",
"                                                                                                                                            "};
