/* XPM */
static xpm_row_t mouse[] = {
"20 25 68 1",
" 	c None",
".	c #000000",
"+	c #060606",
"@	c #222222",
"#	c #020202",
"$	c #282828",
"%	c #DCDCDC",
"&	c #484848",
"*	c #262626",
"=	c #EFEFEF",
"-	c #F2F2F2",
";	c #4E4E4E",
">	c #252525",
",	c #FFFFFF",
"'	c #F7F7F7",
")	c #3E3E3E",
"!	c #595959",
"~	c #FAFAFA",
"{	c #636363",
"]	c #030303",
"^	c #F4F4F4",
"/	c #6C6C6C",
"(	c #1B1B1B",
"_	c #FCFCFC",
":	c #6B6B6B",
"<	c #0B0B0B",
"[	c #101010",
"}	c #F8F8F8",
"|	c #7E7E7E",
"1	c #1C1C1C",
"2	c #6D6D6D",
"3	c #232323",
"4	c #FEFEFE",
"5	c #969696",
"6	c #313131",
"7	c #161616",
"8	c #EEEEEE",
"9	c #D6D6D6",
"0	c #B8B8B8",
"a	c #898989",
"b	c #111111",
"c	c #1A1A1A",
"d	c #AFAFAF",
"e	c #F9F9F9",
"f	c #A8A8A8",
"g	c #EAEAEA",
"h	c #ECECEC",
"i	c #F3F3F3",
"j	c #525252",
"k	c #5B5B5B",
"l	c #717171",
"m	c #202020",
"n	c #C4C4C4",
"o	c #2F2F2F",
"p	c #E6E6E6",
"q	c #BCBCBC",
"r	c #0E0E0E",
"s	c #B2B2B2",
"t	c #383838",
"u	c #353535",
"v	c #C6C6C6",
"w	c #F1F1F1",
"x	c #272727",
"y	c #FDFDFD",
"z	c #7A7A7A",
"A	c #DBDBDB",
"B	c #D8D8D8",
"C	c #4F4F4F",
"    .               ",
"    ..              ",
"    +@#             ",
"    $%&.            ",
"    *=-;.           ",
"    >=,').          ",
"    >=,,-!.         ",
"    >=,,,~{]        ",
"    >=,,,,^/.       ",
"    (=,,,,,_:<      ",
"    [=,,,,,,}|1     ",
"    1=,,,,,,,_23    ",
"    (=,,,,,,,,456   ",
"    7=,,,,,~890ab.  ",
"    c=,,,,,d.....   ",
"    3=,efg,h.       ",
"    >=ij.k,_l*      ",
"    mno.#.p,qr      ",
"    .#]  .s,,.      ",
"    .    .t,,su     ",
"          .v,wx     ",
"          .jy,z.    ",
"           1ABC.    ",
"           .*..     ",
"            .       "};
