/* XPM */
static xpm_row_t save_score_button_unpressed[] = {
"120 50 168 2",
"  	c None",
". 	c #D64141",
"+ 	c #D95D5D",
"@ 	c #E8B2B2",
"# 	c #F4DDDD",
"$ 	c #FAF2F2",
"% 	c #FEFBFB",
"& 	c #FDF9F9",
"* 	c #F9EEEE",
"= 	c #F0D1D1",
"- 	c #E39A9A",
"; 	c #E6A9A9",
"> 	c #FCF6F6",
", 	c #FFFFFF",
"' 	c #F5E2E2",
") 	c #DB7171",
"! 	c #E7ABAB",
"~ 	c #FAEFEF",
"{ 	c #DA6565",
"] 	c #D95B5B",
"^ 	c #FCF7F7",
"/ 	c #FAF1F1",
"( 	c #EAB9B9",
"_ 	c #E49E9E",
": 	c #E6A8A8",
"< 	c #F0D0D0",
"[ 	c #FEFDFD",
"} 	c #EFCCCC",
"| 	c #E39D9D",
"1 	c #FCF5F5",
"2 	c #D96262",
"3 	c #E7ADAD",
"4 	c #D74C4C",
"5 	c #E8B0B0",
"6 	c #F4DFDF",
"7 	c #D74A4A",
"8 	c #FEFCFC",
"9 	c #DD7979",
"0 	c #DB6D6D",
"a 	c #ECC1C1",
"b 	c #F7E6E6",
"c 	c #FDF8F8",
"d 	c #F6E5E5",
"e 	c #E9B7B7",
"f 	c #D85555",
"g 	c #F2D8D8",
"h 	c #EAB7B7",
"i 	c #E5A5A5",
"j 	c #DD7B7B",
"k 	c #EECACA",
"l 	c #F9ECEC",
"m 	c #FDFAFA",
"n 	c #F8EBEB",
"o 	c #EDC6C6",
"p 	c #DA6B6B",
"q 	c #E29999",
"r 	c #DE8383",
"s 	c #D74848",
"t 	c #E5A3A3",
"u 	c #E9B6B6",
"v 	c #E39999",
"w 	c #D74F4F",
"x 	c #FBF3F3",
"y 	c #DE8080",
"z 	c #E29696",
"A 	c #FFFEFE",
"B 	c #F7E8E8",
"C 	c #D64343",
"D 	c #FBF2F2",
"E 	c #DB6E6E",
"F 	c #E8B3B3",
"G 	c #DE7F7F",
"H 	c #F9EDED",
"I 	c #EBBFBF",
"J 	c #DC7474",
"K 	c #F1D5D5",
"L 	c #ECC3C3",
"M 	c #D75151",
"N 	c #E08C8C",
"O 	c #E18F8F",
"P 	c #E29595",
"Q 	c #DD7A7A",
"R 	c #DB7070",
"S 	c #F0CFCF",
"T 	c #E29797",
"U 	c #E39C9C",
"V 	c #F3DADA",
"W 	c #F4DCDC",
"X 	c #E39B9B",
"Y 	c #F3D8D8",
"Z 	c #EFCBCB",
"` 	c #E9B4B4",
" .	c #EBBDBD",
"..	c #EFCDCD",
"+.	c #F7E7E7",
"@.	c #D96060",
"#.	c #E4A2A2",
"$.	c #EABBBB",
"%.	c #ECC0C0",
"&.	c #F8E9E9",
"*.	c #F3DBDB",
"=.	c #D74D4D",
"-.	c #E49F9F",
";.	c #F2D6D6",
">.	c #E19191",
",.	c #F8EAEA",
"'.	c #D85858",
").	c #E6A7A7",
"!.	c #E08E8E",
"~.	c #D64545",
"{.	c #E7AEAE",
"].	c #D85353",
"^.	c #DA6969",
"/.	c #EDC5C5",
"(.	c #E4A0A0",
"_.	c #F1D3D3",
":.	c #F1D2D2",
"<.	c #DF8585",
"[.	c #DE8181",
"}.	c #F5E1E1",
"|.	c #DF8787",
"1.	c #F6E4E4",
"2.	c #DF8686",
"3.	c #D95E5E",
"4.	c #DC7878",
"5.	c #E6AAAA",
"6.	c #EEC7C7",
"7.	c #F3D9D9",
"8.	c #F8E8E8",
"9.	c #DC7373",
"0.	c #D96161",
"a.	c #FAF0F0",
"b.	c #F5E0E0",
"c.	c #EAB8B8",
"d.	c #DA6767",
"e.	c #EDC4C4",
"f.	c #D54040",
"g.	c #D43F3F",
"h.	c #D54140",
"i.	c #CA3A35",
"j.	c #D33F3E",
"k.	c #D74142",
"l.	c #D74242",
"m.	c #B72F1D",
"n.	c #CA3934",
"o.	c #D84242",
"p.	c #D84243",
"q.	c #CB3A36",
"r.	c #AA2702",
"s.	c #B93020",
"t.	c #CD3C38",
"u.	c #D03D3B",
"v.	c #D13E3B",
"w.	c #CC3B37",
"x.	c #B83020",
"y.	c #AC2807",
"z.	c #B93120",
"A.	c #BE3326",
"B.	c #BD3325",
"C.	c #BD3326",
"D.	c #BE3426",
"E.	c #B92F1F",
"F.	c #AA2604",
"G.	c #AB2807",
"H.	c #AB280B",
"I.	c #AB280A",
"J.	c #AB2706",
"K.	c #AA2700",
"                                                                                                                                                                                                                                                ",
"                  . . . . . . . . . . . . . . . . . . . . . . . . . . . . . . . . . . . . . . . . . . . . . . . . . . . . . . . . . . . . . . . . . . . . . . . . . . . . . . . . . . . . . . . . . . . . . . . . . . .                         ",
"                . . . . . . . . . . . . . . . . . . . . . . . . . . . . . . . . . . . . . . . . . . . . . . . . . . . . . . . . . . . . . . . . . . . . . . . . . . . . . . . . . . . . . . . . . . . . . . . . . . . . .                       ",
"              . . . . . . . . . . . . . . . . . . . . . . . . . . . . . . . . . . . . . . . . . . . . . . . . . . . . . . . . . . . . . . . . . . . . . . . . . . . . . . . . . . . . . . . . . . . . . . . . . . . . . . .                     ",
"              . . . . . . . . . . . . . . . . . . . . . . . . . . . . . . . . . . . . . . . . . . . . . . . . . . . . . . . . . . . . . . . . . . . . . . . . . . . . . . . . . . . . . . . . . . . . . . . . . . . . . . .                     ",
"              . . . . . . . . . . . . . . . . . . . . . . . . . . . . . . . . . . . . . . . . . . . . . . . . . . . . . . . . . . . . . . . . . . . . . . . . . . . . . . . . . . . . . . . . . . . . . . . . . . . . . . .                     ",
"              . . . . . . . . . . . . . . . . . . . . . . . . . . . . . . . . . . . . . . . . . . . . . . . . . . . . . . . . . . . . . . . . . . . . . . . . . . . . . . . . . . . . . . . . . . . . . . . . . . . . . . .                     ",
"              . . . . . . . . . . . . . . . . . . . . . . . . . . . . . . . . . . . . . . . . . . . . . . . . . . . . . . . . . . . . . . . . . . . . . . . . . . . . . . . . . . . . . . . . . . . . . . . . . . . . . . .                     ",
"              . . . . . . . . . . . . . . . . . . . . . . . . . . . . . . . . . . . . . . . . . . . . . . . . . . . . . . . . . . . . . . . . . . . . . . . . . . . . . . . . . . . . . . . . . . . . . . . . . . . . . . .                     ",
"              . . . . . . . . . . . . . . . . . . . . . . . . . . . . . . . . . . . . . . . . . . . . . . . . . . . . . . . . . . . . . . . . . . . . . . . . . . . . . . . . . . . . . . . . . . . . . . . . . . . . . . .                     ",
"              . . . . . . . . . . . . . . . . . . . . . . . . . . . . . . . . . . . . . . . . . . . . . . . . . . . . . . . . . . . . . . . . . . . . . . . . . . . . . . . . . . . . . . . . . . . . . . . . . . . . . . .                     ",
"              . . . . . . . . . . . . . . . . . . . . . . . . . . . . + @ # $ % & * = - . . . . . . . . . . . . . . . . . . . . . . . . . . . . . . . . . . . . . . . . . . . . . . . . . . . . . . . . . . . . . . . . . .                     ",
"              . . . . . . . . . . . . . . . . . . . . . . . . . . . ; > , , , , , , , , ' ) . . . . . . . . . . . . . . . . . . . . . . . . . . . . . . . . . . . . . . . . . . . . . . . . . . . . . . . . . . . . . . . .                     ",
"              . . . . . . . . . . . . . . . . . . . . . . . . . . ! , , , , , , , , , , , ~ { . . . . . . . . . . . . . . . . . . . . . . . . . . . . . . . . . . . . . . . . . . . . . . . . . . . . . . . . . . . . . . .                     ",
"              . . . . . . . . . . . . . . . . . . . . . . . . . ] ^ , , , / ( _ : < [ , , , } . . . . . . . . . . . . . . . . . . . . . . . . . . . . . . . . . . . . . . . . . . . . . . . . . . . . . . . . . . . . . . .                     ",
"              . . . . . . . . . . . . . . . . . . . . . . . . . | , , , 1 2 . . . . 3 , , , % 4 . . . . . . . . . . . . . . . . . . . . . . . . . . . . . . . . . . . . . . . . . . . . . . . . . . . . . . . . . . . . . .                     ",
"              . . . . . . . . . . . . . . . . . . . . . . . . . 5 , , , 6 . . . . . 7 8 , , , 9 . . 0 a b > [ c d e f . . g , , , h . . . . i , , , d . . . j k l m m n o p . . . . . . . . . . . . . . . . . . . . . . . .                     ",
"              . . . . . . . . . . . . . . . . . . . . . . . . . q , , , m r . . . . . s 7 7 7 . . 5 8 , , , , , , , * ) . t , , , 6 . . . . < , , , u . . u [ , , , , , , m v . . . . . . . . . . . . . . . . . . . . . . .                     ",
"              . . . . . . . . . . . . . . . . . . . . . . . . . w x , , , % k y . . . . . . . . z , , , , A % , , , , B C f m , , % w . . . D , , , E . F , , , , , , , , , % G . . . . . . . . . . . . . . . . . . . . . .                     ",
"              . . . . . . . . . . . . . . . . . . . . . . . . . . - [ , , , , , H I J . . . . . K , , , L M . N & , , , O . g , , , P . . Q , , , d . R % , , , S T U V , , , W . . . . . . . . . . . . . . . . . . . . . .                     ",
"              . . . . . . . . . . . . . . . . . . . . . . . . . . . X 1 , , , , , , A Y J . . . . . . . . . . . Z , , , u . t , , , o . . ` , , , u .  ., , , ... . . C +., , A @.. . . . . . . . . . . . . . . . . . . . .                     ",
"              . . . . . . . . . . . . . . . . . . . . . . . . . . . . @.L ^ , , , , , , % #.. . . . . . . . . . $., , , %.. f m , , &.. . *., , , E . B , , , y . . . . L , , , T . . . . . . . . . . . . . . . . . . . . .                     ",
"              . . . . . . . . . . . . . . . . . . . . . . . . . . . . . . =.-.;.m , , , , [ >.. . . N ..,.c A , , , , , %.. . g , , , { 7 & , , d . . > , , , , , , , , , , , , ; . . . . . . . . . . . . . . . . . . . . .                     ",
"              . . . . . . . . . . . . . . . . . . . . . . . . . . . . . . . . . '.` c , , , B . 7 < , , , , , , , , , , %.. . t , , , ).!., , , u . ~., , , , , , , , , , , , , 5 . . . . . . . . . . . . . . . . . . . . .                     ",
"              . . . . . . . . . . . . . . . . . . . . . . . . s {.{.{.{.].. . . . . >., , , , ^. ., , , > /.; (._., , , %.. . f m , , :.a , , , E . . % , , , W *.*.*.*.*.*.*.*.q . . . . . . . . . . . . . . . . . . . . .                     ",
"              . . . . . . . . . . . . . . . . . . . . . . . . . & , , , N . . . . . . % , , , <.x , , , [.. . . $., , , %.. . . g , , x b , , d . . . * , , , !.. . . . . . . . . . . . . . . . . . . . . . . . . . . . . .                     ",
"              . . . . . . . . . . . . . . . . . . . . . . . . . }., , , V . . . . . |., , , , 9 , , , > . . . . L , , , %.. . . t , , , , , , u . . . Z , , , 1.7 . . . . 2.3 . . . . . . . . . . . . . . . . . . . . . . .                     ",
"              . . . . . . . . . . . . . . . . . . . . . . . . . - , , , , &.F X X  .> , , , * C % , , , ( 3.p e 8 , , , %.. . . f m , , , , , E . . . 4.[ , , , ,.5.N q k 8 A #.. . . . . . . . . . . . . . . . . . . . . .                     ",
"              . . . . . . . . . . . . . . . . . . . . . . . . . . o , , , , , , , , , , , A X . :., , , , , , , , , , , 6.. . . . g , , , , d . . . . . u , , , , , , , , , , l ~.. . . . . . . . . . . . . . . . . . . . .                     ",
"              . . . . . . . . . . . . . . . . . . . . . . . . . . . @ c , , , , , , , , c i . . 2 n , , , , , , B , , , 7.. . . . t , , , , u . . . . . . @ 8 , , , , , , , 8.9.. . . . . . . . . . . . . . . . . . . . . .                     ",
"              . . . . . . . . . . . . . . . . . . . . . . . . . . . . 0.5 W a.m 8 1 b.c.2 . . . . ]. .n 8 m d ).d.A , , c =.. . . f m , , , E . . . . . . . E e.&.& 8 x W : ~.. . . . . . . . . . . . . . . . . . . . . . .                     ",
"              . . . . . . . . . . . . . . . . . . . . . . . . . . . . . . . . . . . . . . . . . . . . . . . . . . . . . . . . . . . . . . . . . . . . . . . . . . . . . . . . . . . . . . . . . . . . . . . . . . . . . . .                     ",
"              . . . . . . . . . . . . . . . . . . . . . . . . . . . . . . . . . . . . . . . . . . . . . . . . . . . . . . . . . . . . . . . . . . . . . . . . . . . . . . . . . . . . . . . . . . . . . . . . . . . . . . .                     ",
"              . . . . . . . . . . . . . . . . . . . . . . . . . . . . . . . . . . . . . . . . . . . . . . . . . . . . . . . . . . . . . . . . . . . . . . . . . . . . . . . . . . . . . . . . . . . . . . . . . . . . . . .                     ",
"              . . . . . . . . . . . . . . . . . . . . . . . . . . . . . . . . . . . . . . . . . . . . . . . . . . . . . . . . . . . . . . . . . . . . . . . . . . . . . . . . . . . . . . . . . . . . . . . . . . . . . . .                     ",
"              . . . . . . . . . . . . . . . . . . . . . . . . . . . . . . . . . . . . . . . . . . . . . . . . . . . . . . . . . . . . . . . . . . . . . . . . . . . . . . . . . . . . . . . . . . . . . . . . . . . . . . .                     ",
"              . . . . . . . . . . . . . . . . . . . . . . . . . . . . . . . . . . . . . . . . . . . . . . . . . . . . . . . . . . . . . . . . . . . . . . . . . . . . . . . . . . . . . . . . . . . . . . . . . . . . . . .                     ",
"              . . . . . . . . . . . . . . . . . . . . . . . . . . . . . . . . . . . . . . . . . . . . . . . . . . . . . . . . . . . . . . . . . . . . . . . . . . . . . . . . . . . . . . . . . . . . . . . . . . . . . . .                     ",
"              f.. . . . . . . . . . . . . . . . . . . . . . . . . . . . . . . . . . . . . . . . . . . . . . . . . . . . . . . . . . . . . . . . . . . . . . . . . . . . . . . . . . . . . . . . . . . . . . . . . . . . . .                     ",
"              f.. . . . . . . . . . . . . . . . . . . . . . . . . . . . . . . . . . . . . . . . . . . . . . . . . . . . . . . . . . . . . . . . . . . . . . . . . . . . . . . . . . . . . . . . . . . . . . . . . . . . . .                     ",
"              g.. . . . . . . . . . . . . . . . . . . . . . . . . . . . . . . . . . . . . . . . . . . . . . . . . . . . . . . . . . . . . . . . . . . . . . . . . . . . . . . . . . . . . . . . . . . . . . . . . . . . . h.                    ",
"              i.j.k.. . . . . . . . . . . . . . . . . . . . . . . . . . . . . . . . . . . . . . . . . . . . . . . . . . . . . . . . . . . . . . . . . . . . . . . . . . . . . . . . . . . . . . . . . . . . . . . . . . l.j.                    ",
"              m.n.o.k.k.k.k.k.k.k.k.k.k.k.k.k.k.k.k.k.k.k.k.k.k.k.k.k.k.k.k.k.k.k.k.k.k.k.k.k.k.k.k.k.k.k.k.k.k.k.k.k.k.k.k.k.k.k.k.k.k.k.k.k.k.k.k.k.k.k.k.k.k.k.k.k.k.k.k.k.k.k.k.k.k.k.k.k.k.k.k.k.k.k.k.k.k.k.k.k.k.p.q.                    ",
"              r.s.t.u.u.u.u.u.u.u.u.u.u.u.u.u.u.u.u.u.u.u.u.u.u.u.u.u.u.u.u.u.u.u.u.u.u.u.u.u.u.u.u.u.u.u.u.u.u.u.u.u.u.u.u.u.u.u.u.u.u.u.u.u.u.u.u.u.u.u.u.u.u.u.u.u.u.u.u.u.u.u.u.u.u.u.u.u.u.u.u.u.u.u.u.u.u.u.u.u.v.w.x.                    ",
"                y.z.A.B.B.B.B.B.B.B.B.B.B.B.B.B.B.B.B.B.B.B.B.B.B.B.B.B.B.B.B.B.B.B.B.B.B.B.B.B.B.B.B.B.B.B.B.B.B.B.B.B.B.B.B.B.B.B.B.B.B.B.B.B.B.B.B.B.B.B.B.B.B.B.B.B.B.B.B.B.B.B.B.B.B.B.B.B.B.B.B.B.B.B.B.B.B.B.C.D.E.F.                    ",
"                  G.H.I.I.I.I.I.I.I.I.I.I.I.I.I.I.I.I.I.I.I.I.I.I.I.I.I.I.I.I.I.I.I.I.I.I.I.I.I.I.I.I.I.I.I.I.I.I.I.I.I.I.I.I.I.I.I.I.I.I.I.I.I.I.I.I.I.I.I.I.I.I.I.I.I.I.I.I.I.I.I.I.I.I.I.I.I.I.I.I.I.I.I.I.I.I.I.H.H.J.                      ",
"                  K.K.K.K.K.K.K.K.K.K.K.K.K.K.K.K.K.K.K.K.K.K.K.K.K.K.K.K.K.K.K.K.K.K.K.K.K.K.K.K.K.K.K.K.K.K.K.K.K.K.K.K.K.K.K.K.K.K.K.K.K.K.K.K.K.K.K.K.K.K.K.K.K.K.K.K.K.K.K.K.K.K.K.K.K.K.K.K.K.K.K.K.K.K.K.K.K.K.K.                        ",
"                                                                                                                                                                                                                                                ",
"                                                                                                                                                                                                                                                ",
"                                                                                                                                                                                                                                                "};
