/* XPM */
static xpm_row_t apost[] = {
"6 40 2 1",
" 	c None",
".	c #000000",
"      ",
"      ",
"      ",
"      ",
"      ",
"      ",
"      ",
"      ",
"      ",
"      ",
"      ",
"      ",
" .... ",
" .... ",
" .... ",
" ...  ",
" ...  ",
" ...  ",
"....  ",
"      ",
"      ",
"      ",
"      ",
"      ",
"      ",
"      ",
"      ",
"      ",
"      ",
"      ",
"      ",
"      ",
"      ",
"      ",
"      ",
"      ",
"      ",
"      ",
"      ",
"      "};
